<svg width="19" height="18" viewBox="0 0 19 18" fill="none" xmlns="http://www.w3.org/2000/svg">
<path d="M2.00008 17.3333V4.83329C2.00008 2.86913 2.00008 1.88663 2.61008 1.27663C3.22008 0.666626 4.20258 0.666626 6.16675 0.666626H8.66675C10.6309 0.666626 11.6134 0.666626 12.2234 1.27663C12.8334 1.88663 12.8334 2.86913 12.8334 4.83329V17.3333M1.16675 17.3333H13.6667M2.00008 8.16663H12.8334M17.0001 6.10579L17.3726 5.92079C17.5976 5.80996 17.7092 5.75413 17.7709 5.65496C17.8334 5.55496 17.8334 5.43163 17.8334 5.18329V4.60496C17.8334 4.06913 17.8334 3.80079 17.6884 3.67746C17.6424 3.63825 17.5883 3.60952 17.5301 3.59329C17.3451 3.54163 17.1192 3.69079 16.6684 3.98829C16.0892 4.36996 15.8001 4.56079 15.6151 4.83329C15.5541 4.92382 15.5022 5.02012 15.4601 5.12079C15.3334 5.42329 15.3334 5.76663 15.3334 6.45579V7.81663C15.3334 8.00996 15.4917 8.16663 15.6876 8.16663C15.8285 8.16702 15.9664 8.12536 16.0835 8.04698C16.2006 7.96859 16.2917 7.85706 16.3451 7.72663L17.0001 6.10579Z" stroke="black" stroke-linecap="round" stroke-linejoin="round"/>
<path d="M15.7319 8.16663C15.8985 9.32163 16.2877 10.6416 16.1294 11.8166C15.9869 12.8808 15.1444 13.74 14.036 13.9508C13.7777 14 13.4627 14 12.8335 14M8.04186 10.6666L6.42019 12.2641C6.22269 12.4783 6.12353 12.585 6.18519 12.6675C6.24603 12.75 6.42436 12.75 6.78103 12.75H8.05186C8.40936 12.75 8.58769 12.75 8.64853 12.8325C8.71019 12.9158 8.61103 13.0216 8.41353 13.2358L6.78103 14.8333" stroke="black" stroke-linecap="round" stroke-linejoin="round"/>
</svg>
