<svg width="29" height="23" viewBox="0 0 29 23" fill="none" xmlns="http://www.w3.org/2000/svg">
<path d="M27.2917 9.12501H26.0261L22.7683 1.80079C22.6224 1.46888 22.3828 1.18676 22.0789 0.989014C21.7749 0.791267 21.42 0.686483 21.0574 0.687507H7.27612C6.91355 0.686483 6.55855 0.791267 6.25464 0.989014C5.95074 1.18676 5.71113 1.46888 5.56519 1.80079L2.30737 9.12501H1.04175C0.793108 9.12501 0.554651 9.22378 0.378835 9.39959C0.20302 9.57541 0.104248 9.81387 0.104248 10.0625C0.104248 10.3111 0.20302 10.5496 0.378835 10.7254C0.554651 10.9012 0.793108 11 1.04175 11H1.97925V20.375C1.97925 20.8723 2.17679 21.3492 2.52842 21.7008C2.88005 22.0525 3.35697 22.25 3.85425 22.25H6.66675C7.16403 22.25 7.64094 22.0525 7.99257 21.7008C8.3442 21.3492 8.54175 20.8723 8.54175 20.375V18.5H19.7917V20.375C19.7917 20.8723 19.9893 21.3492 20.3409 21.7008C20.6926 22.0525 21.1695 22.25 21.6667 22.25H24.4792C24.9765 22.25 25.4534 22.0525 25.8051 21.7008C26.1567 21.3492 26.3542 20.8723 26.3542 20.375V11H27.2917C27.5404 11 27.7788 10.9012 27.9547 10.7254C28.1305 10.5496 28.2292 10.3111 28.2292 10.0625C28.2292 9.81387 28.1305 9.57541 27.9547 9.39959C27.7788 9.22378 27.5404 9.12501 27.2917 9.12501ZM7.27612 2.56251H21.0574L23.9753 9.12501H4.35815L7.27612 2.56251ZM6.66675 20.375H3.85425V18.5H6.66675V20.375ZM21.6667 20.375V18.5H24.4792V20.375H21.6667ZM24.4792 16.625H3.85425V11H24.4792V16.625ZM5.72925 13.8125C5.72925 13.5639 5.82802 13.3254 6.00384 13.1496C6.17965 12.9738 6.41811 12.875 6.66675 12.875H8.54175C8.79039 12.875 9.02884 12.9738 9.20466 13.1496C9.38048 13.3254 9.47925 13.5639 9.47925 13.8125C9.47925 14.0611 9.38048 14.2996 9.20466 14.4754C9.02884 14.6512 8.79039 14.75 8.54175 14.75H6.66675C6.41811 14.75 6.17965 14.6512 6.00384 14.4754C5.82802 14.2996 5.72925 14.0611 5.72925 13.8125ZM18.8542 13.8125C18.8542 13.5639 18.953 13.3254 19.1288 13.1496C19.3046 12.9738 19.5431 12.875 19.7917 12.875H21.6667C21.9154 12.875 22.1538 12.9738 22.3297 13.1496C22.5055 13.3254 22.6042 13.5639 22.6042 13.8125C22.6042 14.0611 22.5055 14.2996 22.3297 14.4754C22.1538 14.6512 21.9154 14.75 21.6667 14.75H19.7917C19.5431 14.75 19.3046 14.6512 19.1288 14.4754C18.953 14.2996 18.8542 14.0611 18.8542 13.8125Z" fill="#333333"/>
</svg>
