<svg width="35" height="27" viewBox="0 0 35 27" fill="none" xmlns="http://www.w3.org/2000/svg">
<mask id="path-1-inside-1_2250_24116" fill="white">
<path fill-rule="evenodd" clip-rule="evenodd" d="M6.16954 0.813472C2.86239 1.59339 0.65314 4.72481 0.447988 8.11648C0.4271 8.46182 0.416504 8.80995 0.416504 9.16054C0.416504 18.5647 8.04009 26.1883 17.4443 26.1883C26.8484 26.1883 34.472 18.5647 34.472 9.16054C34.472 8.61941 34.4468 8.08418 34.3974 7.55595C34.1278 4.67122 32.4366 1.93443 29.689 1.01523C28.6784 0.67715 27.6108 0.5 26.5245 0.5H17.444H8.86481C7.95106 0.5 7.04697 0.606551 6.16954 0.813472Z"/>
</mask>
<path d="M3.05874 9.16054C3.05874 8.86319 3.06773 8.56827 3.08541 8.27601L-2.18943 7.95695C-2.21353 8.35538 -2.22573 8.7567 -2.22573 9.16054H3.05874ZM17.4443 23.5461C9.49936 23.5461 3.05874 17.1054 3.05874 9.16054H-2.22573C-2.22573 20.024 6.58082 28.8305 17.4443 28.8305V23.5461ZM31.8298 9.16054C31.8298 17.1054 25.3892 23.5461 17.4443 23.5461V28.8305C28.3077 28.8305 37.1143 20.024 37.1143 9.16054H31.8298ZM31.7666 7.80184C31.8084 8.24844 31.8298 8.70163 31.8298 9.16054H37.1143C37.1143 8.5372 37.0852 7.91991 37.0282 7.31006L31.7666 7.80184ZM30.5272 -1.49051C29.249 -1.91814 27.8984 -2.14224 26.5245 -2.14224V3.14224C27.3231 3.14224 28.1078 3.27244 28.8507 3.52097L30.5272 -1.49051ZM26.5245 -2.14224H17.444V3.14224H26.5245V-2.14224ZM17.444 -2.14224H8.86481V3.14224H17.444V-2.14224ZM8.86481 -2.14224C7.74554 -2.14224 6.63796 -2.01171 5.56307 -1.75822L6.77602 3.38517C7.45597 3.22481 8.15658 3.14224 8.86481 3.14224V-2.14224ZM37.0282 7.31006C36.6886 3.67703 34.5193 -0.154977 30.5272 -1.49051L28.8507 3.52097C30.3538 4.02383 31.5669 5.66541 31.7666 7.80184L37.0282 7.31006ZM3.08541 8.27601C3.2338 5.8226 4.81 3.84881 6.77602 3.38517L5.56307 -1.75822C0.914783 -0.662032 -1.92753 3.62703 -2.18943 7.95695L3.08541 8.27601Z" fill="#777777" mask="url(#path-1-inside-1_2250_24116)"/>
<circle cx="8.85672" cy="7.76615" r="5.50466" stroke="#777777" stroke-width="2.34866"/>
<circle cx="26.0315" cy="7.76615" r="5.50466" stroke="#777777" stroke-width="2.34866"/>
<circle cx="9.00365" cy="7.91295" r="1.98168" fill="#777777"/>
<circle cx="26.0312" cy="7.91295" r="1.98168" fill="#777777"/>
<path fill-rule="evenodd" clip-rule="evenodd" d="M6.14087 19.2892C7.21734 18.3595 10.9997 16.5001 17.5172 16.5001C24.0347 16.5001 27.4745 18.3595 28.3797 19.2892C27.4256 21.173 23.9173 24.9406 17.5172 24.9406C11.1171 24.9406 7.26627 21.173 6.14087 19.2892ZM17.5039 23.5198C18.9964 23.5198 20.2064 22.3099 20.2064 20.8174C20.2064 19.3249 18.9964 18.1149 17.5039 18.1149C16.0114 18.1149 14.8015 19.3249 14.8015 20.8174C14.8015 22.3099 16.0114 23.5198 17.5039 23.5198ZM13.1868 20.8305C13.1868 21.6006 12.5625 22.225 11.7923 22.225C11.0221 22.225 10.3978 21.6006 10.3978 20.8305C10.3978 20.0603 11.0221 19.436 11.7923 19.436C12.5625 19.436 13.1868 20.0603 13.1868 20.8305ZM23.095 22.225C23.8652 22.225 24.4895 21.6006 24.4895 20.8305C24.4895 20.0603 23.8652 19.436 23.095 19.436C22.3248 19.436 21.7005 20.0603 21.7005 20.8305C21.7005 21.6006 22.3248 22.225 23.095 22.225Z" fill="#777777"/>
</svg>
