<svg width="12" height="17" viewBox="0 0 12 17" fill="none" xmlns="http://www.w3.org/2000/svg">
<path d="M4.5 8.8655V14.75M6.99975 3.78875V1.25M2.00025 3.78875V1.25M8.25 5.28875V7.3655C8.25 7.76332 8.09196 8.14486 7.81066 8.42616C7.52936 8.70746 7.14782 8.8655 6.75 8.8655H2.25C1.85218 8.8655 1.47064 8.70746 1.18934 8.42616C0.908035 8.14486 0.75 7.76332 0.75 7.3655V5.288C0.75 4.89018 0.908035 4.50864 1.18934 4.22734C1.47064 3.94604 1.85218 3.788 2.25 3.788H6.75C7.14782 3.788 7.52936 3.94604 7.81066 4.22734C8.09196 4.50864 8.25 4.89018 8.25 5.288V5.28875Z" stroke="#333333" stroke-width="1.2" stroke-linecap="round"/>
<path d="M9.50025 11L8.25 13.25H11.25L9.99975 15.5" stroke="#333333" stroke-width="1.2" stroke-linecap="round" stroke-linejoin="round"/>
</svg>
