<svg width="18" height="18" viewBox="0 0 18 18" fill="none" xmlns="http://www.w3.org/2000/svg">
<path d="M13.1791 13.6469L13.0326 13.5H12.8251H3.16675C2.63631 13.5 2.12761 13.2892 1.75253 12.9142L1.39898 13.2677L1.75253 12.9142C1.37746 12.5391 1.16675 12.0304 1.16675 11.5V3.16663C1.16675 2.63619 1.37746 2.12749 1.75253 1.75241C2.12761 1.37734 2.63632 1.16663 3.16675 1.16663H14.8334C15.3638 1.16663 15.8726 1.37734 16.2476 1.75241C16.6227 2.12748 16.8334 2.63619 16.8334 3.16663V16.4984C16.8329 16.5639 16.8131 16.6278 16.7765 16.6821C16.7397 16.7367 16.6876 16.7791 16.6268 16.8041L16.615 16.809L16.6034 16.8144C16.5752 16.8277 16.5442 16.8343 16.513 16.8335L16.5051 16.8333L16.4972 16.8333C16.4533 16.8336 16.4098 16.8251 16.3692 16.8086L16.1802 17.2714L16.3692 16.8086C16.329 16.7921 16.2923 16.768 16.2614 16.7375C16.2611 16.7372 16.2608 16.7369 16.2605 16.7366L13.1791 13.6469ZM15.3124 14.8444L16.1667 15.7025V14.4916V3.16663C16.1667 2.813 16.0263 2.47387 15.7762 2.22382C15.5262 1.97377 15.187 1.83329 14.8334 1.83329H3.16675C2.81313 1.83329 2.47399 1.97377 2.22394 2.22382C1.97389 2.47387 1.83341 2.813 1.83341 3.16663V11.5C1.83341 11.8536 1.97389 12.1927 2.22394 12.4428C2.47399 12.6928 2.81313 12.8333 3.16675 12.8333L13.1667 12.8333L13.1696 12.8333C13.2135 12.833 13.257 12.8414 13.2976 12.858C13.3378 12.8745 13.3745 12.8986 13.4055 12.9291C13.4057 12.9294 13.406 12.9297 13.4063 12.93L15.3124 14.8444ZM4.83341 8.66663H9.83341C9.92182 8.66663 10.0066 8.70175 10.0691 8.76426C10.1316 8.82677 10.1667 8.91155 10.1667 8.99996C10.1667 9.08836 10.1316 9.17315 10.0691 9.23566C10.0066 9.29817 9.92182 9.33329 9.83341 9.33329H4.83341C4.74501 9.33329 4.66022 9.29817 4.59771 9.23566C4.5352 9.17315 4.50008 9.08836 4.50008 8.99996C4.50008 8.91155 4.5352 8.82677 4.59771 8.76426C4.66022 8.70175 4.74501 8.66663 4.83341 8.66663ZM4.83341 5.33329H13.1667C13.2552 5.33329 13.3399 5.36841 13.4024 5.43092C13.465 5.49343 13.5001 5.57822 13.5001 5.66663C13.5001 5.75503 13.465 5.83982 13.4025 5.90233C13.3399 5.96484 13.2552 5.99996 13.1667 5.99996H4.83341C4.74501 5.99996 4.66022 5.96484 4.59771 5.90233C4.5352 5.83982 4.50008 5.75503 4.50008 5.66663C4.50008 5.57822 4.5352 5.49344 4.59771 5.43092C4.66022 5.36841 4.74501 5.33329 4.83341 5.33329Z" fill="#333333" stroke="black"/>
</svg>
