<svg width="19" height="15" viewBox="0 0 19 15" fill="none" xmlns="http://www.w3.org/2000/svg">
<path d="M18.25 5.75H17.4062L15.2344 0.867193C15.1371 0.64592 14.9773 0.457841 14.7747 0.326009C14.5721 0.194178 14.3355 0.124322 14.0938 0.125005H4.90625C4.66453 0.124322 4.42787 0.194178 4.22526 0.326009C4.02266 0.457841 3.86292 0.64592 3.76562 0.867193L1.59375 5.75H0.75C0.58424 5.75 0.425268 5.81585 0.308058 5.93306C0.190848 6.05027 0.125 6.20924 0.125 6.375C0.125 6.54077 0.190848 6.69974 0.308058 6.81695C0.425268 6.93416 0.58424 7 0.75 7H1.375V13.25C1.375 13.5815 1.5067 13.8995 1.74112 14.1339C1.97554 14.3683 2.29348 14.5 2.625 14.5H4.5C4.83152 14.5 5.14946 14.3683 5.38388 14.1339C5.6183 13.8995 5.75 13.5815 5.75 13.25V12H13.25V13.25C13.25 13.5815 13.3817 13.8995 13.6161 14.1339C13.8505 14.3683 14.1685 14.5 14.5 14.5H16.375C16.7065 14.5 17.0245 14.3683 17.2589 14.1339C17.4933 13.8995 17.625 13.5815 17.625 13.25V7H18.25C18.4158 7 18.5747 6.93416 18.6919 6.81695C18.8092 6.69974 18.875 6.54077 18.875 6.375C18.875 6.20924 18.8092 6.05027 18.6919 5.93306C18.5747 5.81585 18.4158 5.75 18.25 5.75ZM4.90625 1.375H14.0938L16.0391 5.75H2.96094L4.90625 1.375ZM4.5 13.25H2.625V12H4.5V13.25ZM14.5 13.25V12H16.375V13.25H14.5ZM16.375 10.75H2.625V7H16.375V10.75ZM3.875 8.875C3.875 8.70924 3.94085 8.55027 4.05806 8.43306C4.17527 8.31585 4.33424 8.25 4.5 8.25H5.75C5.91576 8.25 6.07473 8.31585 6.19194 8.43306C6.30915 8.55027 6.375 8.70924 6.375 8.875C6.375 9.04076 6.30915 9.19974 6.19194 9.31695C6.07473 9.43416 5.91576 9.5 5.75 9.5H4.5C4.33424 9.5 4.17527 9.43416 4.05806 9.31695C3.94085 9.19974 3.875 9.04076 3.875 8.875ZM12.625 8.875C12.625 8.70924 12.6908 8.55027 12.8081 8.43306C12.9253 8.31585 13.0842 8.25 13.25 8.25H14.5C14.6658 8.25 14.8247 8.31585 14.9419 8.43306C15.0592 8.55027 15.125 8.70924 15.125 8.875C15.125 9.04076 15.0592 9.19974 14.9419 9.31695C14.8247 9.43416 14.6658 9.5 14.5 9.5H13.25C13.0842 9.5 12.9253 9.43416 12.8081 9.31695C12.6908 9.19974 12.625 9.04076 12.625 8.875Z" fill="white"/>
</svg>
