<svg width="13" height="14" viewBox="0 0 13 14" fill="none" xmlns="http://www.w3.org/2000/svg">
<path d="M3.875 3.88461V0.25M9.125 3.88461V0.25M6.5 11.1538V13.75M8.56174 11.1538H4.43826C3.59268 11.1538 2.78173 10.8216 2.18382 10.2303C1.58591 9.63894 1.25 8.83691 1.25 8.00062V4.93569C1.25 4.65693 1.36197 4.38958 1.56127 4.19247C1.76058 3.99535 2.03089 3.88461 2.31275 3.88461H10.6872C10.9691 3.88461 11.2394 3.99535 11.4387 4.19247C11.638 4.38958 11.75 4.65693 11.75 4.93569V8.00062C11.75 8.83691 11.4141 9.63894 10.8162 10.2303C10.2183 10.8216 9.40732 11.1538 8.56174 11.1538Z" stroke="black" stroke-width="1.2"/>
</svg>
