<svg width="25" height="24" viewBox="0 0 25 24" fill="none" xmlns="http://www.w3.org/2000/svg">
  <path d="M3.5 22V7C3.5 4.643 3.5 3.464 4.232 2.732C4.964 2 6.143 2 8.5 2H11.5C13.857 2 15.036 2 15.768 2.732C16.5 3.464 16.5 4.643 16.5 7V22M2.5 22H17.5M3.5 11H16.5M21.5 8.527L21.947 8.305C22.217 8.172 22.351 8.105 22.425 7.986C22.5 7.866 22.5 7.718 22.5 7.42V6.726C22.5 6.083 22.5 5.761 22.326 5.613C22.2707 5.56594 22.2059 5.53148 22.136 5.512C21.914 5.45 21.643 5.629 21.102 5.986C20.407 6.444 20.06 6.673 19.838 7C19.7649 7.10863 19.7026 7.22419 19.652 7.345C19.5 7.708 19.5 8.12 19.5 8.947V10.58C19.5 10.812 19.69 11 19.925 11C20.0941 11.0005 20.2595 10.9505 20.4001 10.8564C20.5406 10.7624 20.6499 10.6285 20.714 10.472L21.5 8.527Z" stroke="black" stroke-width="2"/>
  <path d="M19.9781 11C20.1781 12.386 20.6451 13.97 20.4551 15.38C20.2841 16.657 19.2731 17.688 17.9431 17.941C17.6331 18 17.2551 18 16.5001 18M10.7501 14L8.80408 15.917C8.56708 16.174 8.44808 16.302 8.52208 16.401C8.59508 16.5 8.80908 16.5 9.23708 16.5H10.7621C11.1911 16.5 11.4051 16.5 11.4781 16.599C11.5521 16.699 11.4331 16.826 11.1961 17.083L9.23708 19" stroke="black" stroke-width="2" stroke-linecap="round" stroke-linejoin="round"/>
</svg>
