<svg width="12" height="16" viewBox="0 0 12 16" fill="none" xmlns="http://www.w3.org/2000/svg">
<path d="M7.88564 6.60552L7.88388 6.60527C7.65222 6.57225 7.47933 6.51098 7.34821 6.39213L7.33426 6.37948L7.32129 6.36581C7.19808 6.23594 7.1432 6.06862 7.11453 5.85937L7.88564 6.60552ZM7.88564 6.60552C8.13231 6.63978 8.45228 6.64376 8.87614 6.64376H8.91732C9.65798 6.64376 10.2167 6.64493 10.6217 6.70225C11.0263 6.75993 11.2838 6.87404 11.4188 7.10469L11.423 7.11214L11.4496 7.18426L11.4612 7.19611C11.5457 7.42901 11.4879 7.69707 11.3171 8.0327L11.3166 8.03371M7.88564 6.60552L11.3166 8.03371M6.64799 14.4411L6.64843 14.4407C7.06332 14.0026 7.56622 13.3135 8.23214 12.3972L8.23227 12.397L10.3595 9.47251L6.64799 14.4411ZM6.64799 14.4411C6.22665 14.8871 5.89498 15.0722 5.57463 14.9725L6.64799 14.4411ZM11.3166 8.03371C11.1293 8.4039 10.8 8.86558 10.3598 9.47209L11.3166 8.03371ZM5.59883 14.9329C5.52523 14.9135 5.44044 14.8742 5.36156 14.7987C5.29682 14.7368 5.25316 14.6664 5.22232 14.607C5.13431 14.4391 5.07637 14.2084 5.03689 13.9141L5.03679 13.9134C4.95833 13.3216 4.95833 12.4708 4.95833 11.3339V11.3155V11.0993C4.95833 10.6883 4.95459 10.3716 4.91838 10.1258C4.88306 9.88682 4.81609 9.71285 4.68982 9.5802L4.68616 9.5771L4.67217 9.56289C4.53754 9.43652 4.36407 9.37401 4.12081 9.34195C3.88236 9.31144 3.57365 9.31054 3.16675 9.31054H3.13518C2.37383 9.31054 1.80021 9.30484 1.38473 9.24047L1.38373 9.24032C1.01528 9.18247 0.764929 9.07906 0.625315 8.8804L0.587852 8.82709L0.565301 8.76596C0.524442 8.65521 0.523685 8.55006 0.537761 8.45528L0.537777 8.45517C0.558142 8.31824 0.615116 8.16391 0.711332 7.98199C0.900201 7.62123 1.2296 7.16798 1.67045 6.56191C1.67046 6.56189 1.67048 6.56187 1.67049 6.56185L3.77192 3.67191L3.77196 3.67184L3.78625 3.65221C4.45844 2.72809 4.9626 2.03497 5.37838 1.59678L5.59883 14.9329ZM5.59883 14.9329C5.61444 14.9373 5.62997 14.9409 5.64538 14.9437L5.6716 14.9497L5.59883 14.9329ZM5.42607 15.45C6.06297 15.6481 6.59691 15.2232 7.01144 14.7845C7.45411 14.3171 7.97914 13.5958 8.63662 12.6911L5.42607 15.45ZM1.62548 6.56405L3.77839 3.60294L5.57458 14.9725C5.25093 14.8718 5.08876 14.5266 5.00827 13.9222C4.92994 13.3309 4.92887 12.4829 4.92887 11.3608V11.0993C4.92887 10.6855 4.92511 10.375 4.88992 10.1357L4.88981 10.135C4.85688 9.91331 4.79603 9.75066 4.68041 9.62531L4.66401 9.60753L4.64596 9.59141C4.51474 9.4742 4.34403 9.41766 4.11923 9.38896C3.8768 9.35688 3.56351 9.35688 3.14946 9.35689H3.13518C2.37478 9.35689 1.79912 9.3508 1.38219 9.28667C0.975471 9.22347 0.714834 9.10352 0.578976 8.87132L0.575306 8.86479L0.573797 8.8621L0.566038 8.84633L0.564343 8.84357C0.443727 8.59618 0.498623 8.31606 0.687892 7.95536L0.688353 7.95448C0.874416 7.59817 1.19754 7.15232 1.6254 6.56415L1.62548 6.56405ZM5.37806 1.59712L5.74109 1.94093L6.27023 14.059L6.63324 14.4029C6.63325 14.4028 6.63326 14.4028 6.63327 14.4028C7.05103 13.9618 7.55976 13.2624 8.23936 12.3281L8.23945 12.328L10.3402 9.43801C10.3402 9.438 10.3402 9.43798 10.3402 9.43797C10.7812 8.8315 11.1076 8.3729 11.2942 8.00632L11.2948 8.00513C11.4445 7.70904 11.5177 7.44921 11.435 7.21662L11.4132 7.15511L11.3763 7.10127C11.2322 6.89118 10.9692 6.79831 10.6213 6.74822L10.6203 6.74808C10.2118 6.69009 9.6471 6.6901 8.89687 6.6901H8.87545C8.45401 6.6901 8.13206 6.68638 7.88323 6.6511L7.88216 6.65095C7.6373 6.61678 7.45995 6.55064 7.32471 6.42378L7.32327 6.42232L7.32329 6.4223L7.32023 6.41925C7.18542 6.28456 7.11829 6.11009 7.08556 5.8676L7.0854 5.86645C7.05336 5.63319 7.05299 5.33153 7.05299 4.93418V4.68445C7.05299 3.53871 7.05274 2.68224 6.97322 2.08702C6.93468 1.79004 6.87581 1.56087 6.78869 1.39365C6.75837 1.33515 6.71475 1.26402 6.64922 1.20137C6.63301 1.18587 6.61496 1.17041 6.59497 1.15559L6.56583 1.12599L6.50073 1.09952C6.47885 1.08937 6.45763 1.08134 6.43748 1.07497C6.43719 1.07488 6.43691 1.07479 6.43662 1.0747C6.40928 1.0656 6.38223 1.05901 6.35559 1.05458L6.33972 1.05099H6.33029C6.18219 1.03363 6.0481 1.0809 5.94805 1.13086L5.94803 1.13082L5.94235 1.13375C5.77082 1.22215 5.58646 1.37707 5.37806 1.59712Z" fill="#333333" stroke="black"/>
</svg>
