<svg width="30" height="30" viewBox="0 0 30 30" fill="none" xmlns="http://www.w3.org/2000/svg">
<rect x="2.23787" y="20.5509" width="26.4224" height="8.0735" rx="4.03675" stroke="black" stroke-width="2.64224"/>
<mask id="path-2-inside-1_2250_24048" fill="white">
<path fill-rule="evenodd" clip-rule="evenodd" d="M4.51352 0C2.89696 2.22616 1.9436 4.96514 1.9436 7.92679C1.9436 15.3853 7.98989 21.4316 15.4484 21.4316C22.9069 21.4316 28.9531 15.3853 28.9531 7.92679C28.9531 4.96514 27.9998 2.22616 26.3832 0H4.51352Z"/>
</mask>
<path d="M4.51352 0V-2.64224H3.16683L2.37553 -1.55254L4.51352 0ZM26.3832 0L28.5212 -1.55254L27.7299 -2.64224H26.3832V0ZM4.58584 7.92679C4.58584 5.54133 5.35169 3.34253 6.65152 1.55254L2.37553 -1.55254C0.442223 1.1098 -0.698634 4.38895 -0.698634 7.92679H4.58584ZM15.4484 18.7893C9.44916 18.7893 4.58584 13.926 4.58584 7.92679H-0.698634C-0.698634 16.8445 6.53063 24.0738 15.4484 24.0738V18.7893ZM26.3109 7.92679C26.3109 13.926 21.4476 18.7893 15.4484 18.7893V24.0738C24.3661 24.0738 31.5954 16.8445 31.5954 7.92679H26.3109ZM24.2452 1.55254C25.5451 3.34253 26.3109 5.54133 26.3109 7.92679H31.5954C31.5954 4.38895 30.4545 1.1098 28.5212 -1.55254L24.2452 1.55254ZM26.3832 -2.64224H4.51352V2.64224H26.3832V-2.64224Z" fill="black" mask="url(#path-2-inside-1_2250_24048)"/>
<circle cx="6.44932" cy="24.6145" r="2.00889" fill="black"/>
<circle cx="24.5052" cy="24.6142" r="2.00889" fill="black"/>
<circle cx="9.69639" cy="9.57408" r="2.00889" fill="black"/>
<circle cx="12.6056" cy="14.2846" r="2.00889" fill="black"/>
<circle cx="15.3766" cy="9.57432" r="2.00889" fill="black"/>
<circle cx="12.6055" cy="5.55639" r="1.59326" fill="black"/>
<circle cx="18.2861" cy="5.55639" r="1.59326" fill="black"/>
<circle cx="18.2857" cy="14.2846" r="2.00889" fill="black"/>
<circle cx="21.0567" cy="9.57432" r="2.00889" fill="black"/>
</svg>
