<svg width="20" height="20" viewBox="0 0 20 20" fill="none" xmlns="http://www.w3.org/2000/svg">
<path fill-rule="evenodd" clip-rule="evenodd" d="M3.5 -3C1.77609 -3 0.122792 -2.31518 -1.09619 -1.09619C-2.31518 0.122792 -3 1.77609 -3 3.5V16.5C-3 18.2239 -2.31518 19.8772 -1.09619 21.0962C0.122792 22.3152 1.77609 23 3.5 23H16.5C18.2239 23 19.8772 22.3152 21.0962 21.0962C22.3152 19.8772 23 18.2239 23 16.5V3.5C23 1.77609 22.3152 0.122792 21.0962 -1.09619C19.8772 -2.31518 18.2239 -3 16.5 -3H3.5ZM14.849 8.2892C14.9658 8.16458 15.0569 8.01817 15.117 7.85835C15.1772 7.69852 15.2054 7.52841 15.1998 7.35771C15.1943 7.18702 15.1551 7.01909 15.0847 6.86352C15.0142 6.70795 14.9138 6.56777 14.7892 6.451C14.6646 6.33423 14.5182 6.24315 14.3583 6.18296C14.1985 6.12276 14.0284 6.09464 13.8577 6.1002C13.687 6.10575 13.5191 6.14487 13.3635 6.21532C13.2079 6.28577 13.0678 6.38618 12.951 6.5108L8.9431 10.7878L6.9632 9.0289C6.7038 8.81325 6.37073 8.70689 6.03435 8.73226C5.69797 8.75764 5.38463 8.91278 5.16052 9.16491C4.93641 9.41703 4.81908 9.7464 4.83331 10.0834C4.84754 10.4205 4.99223 10.7388 5.2368 10.9711L8.1618 13.5711C8.41489 13.7959 8.7457 13.9131 9.08388 13.8978C9.42206 13.8826 9.74093 13.7359 9.9727 13.4892L14.8477 8.2892H14.849Z" fill="black"/>
</svg>
