<svg width="8" height="14" viewBox="0 0 8 14" fill="none" xmlns="http://www.w3.org/2000/svg">
<path d="M3.26865 13.75V12.1375C2.60615 11.9875 2.0344 11.7 1.5534 11.275C1.0719 10.85 0.718652 10.25 0.493652 9.475L1.88115 8.9125C2.06865 9.5125 2.3469 9.96875 2.7159 10.2812C3.0844 10.5938 3.56865 10.75 4.16865 10.75C4.68115 10.75 5.11565 10.6345 5.47215 10.4035C5.82815 10.172 6.00615 9.8125 6.00615 9.325C6.00615 8.8875 5.86865 8.5405 5.59365 8.284C5.31865 8.028 4.68115 7.7375 3.68115 7.4125C2.60615 7.075 1.86865 6.672 1.46865 6.2035C1.06865 5.7345 0.868652 5.1625 0.868652 4.4875C0.868652 3.675 1.13115 3.04375 1.65615 2.59375C2.18115 2.14375 2.71865 1.8875 3.26865 1.825V0.25H4.76865V1.825C5.39365 1.925 5.9094 2.153 6.3159 2.509C6.7219 2.8655 7.01865 3.3 7.20615 3.8125L5.81865 4.4125C5.66865 4.0125 5.45615 3.7125 5.18115 3.5125C4.90615 3.3125 4.53115 3.2125 4.05615 3.2125C3.50615 3.2125 3.0874 3.3345 2.7999 3.5785C2.5124 3.822 2.36865 4.125 2.36865 4.4875C2.36865 4.9 2.55615 5.225 2.93115 5.4625C3.30615 5.7 3.95615 5.95 4.88115 6.2125C5.74365 6.4625 6.3969 6.85925 6.8409 7.40275C7.2844 7.94675 7.50615 8.575 7.50615 9.2875C7.50615 10.175 7.24365 10.85 6.71865 11.3125C6.19365 11.775 5.54365 12.0625 4.76865 12.175V13.75H3.26865Z" fill="black"/>
</svg>
