<svg width="17" height="18" viewBox="0 0 17 18" fill="none" xmlns="http://www.w3.org/2000/svg">
<path d="M0.800049 4.14001H2.42005H15.38" fill="black"/>
<path d="M0.800049 4.14001H2.42005H15.38" stroke="black" stroke-width="1.8" stroke-linecap="round" stroke-linejoin="round"/>
<path d="M13.7602 4.14002V15.48C13.7602 15.9097 13.5895 16.3217 13.2857 16.6255C12.9819 16.9293 12.5698 17.1 12.1402 17.1H4.04017C3.61052 17.1 3.19846 16.9293 2.89465 16.6255C2.59084 16.3217 2.42017 15.9097 2.42017 15.48V4.14002M4.85017 4.14002V2.52002C4.85017 2.09037 5.02084 1.67832 5.32465 1.37451C5.62846 1.0707 6.04052 0.900024 6.47017 0.900024H9.71017C10.1398 0.900024 10.5519 1.0707 10.8557 1.37451C11.1595 1.67832 11.3302 2.09037 11.3302 2.52002V4.14002" stroke="black" stroke-width="1.8" stroke-linecap="round" stroke-linejoin="round"/>
<path d="M6.46997 8.19006V13.0501" stroke="black" stroke-width="1.8" stroke-linecap="round" stroke-linejoin="round"/>
<path d="M9.70996 8.19006V13.0501" stroke="black" stroke-width="1.8" stroke-linecap="round" stroke-linejoin="round"/>
</svg>
