<svg width="31" height="25" viewBox="0 0 31 25" fill="none" xmlns="http://www.w3.org/2000/svg">
<path d="M3.93994 9.875L13.0659 19.6162L8.67139 9.875H3.93994ZM15.8345 21.1836L20.9468 9.875H10.7222L15.8345 21.1836ZM8.71533 8L11.7036 2.375H7.86572L3.64697 8H8.71533ZM18.603 19.6162L27.729 9.875H22.9976L18.603 19.6162ZM10.8394 8H20.8296L17.8413 2.375H13.8276L10.8394 8ZM22.9536 8H28.022L23.8032 2.375H19.9653L22.9536 8ZM25.019 0.880859L30.644 8.38086C30.7808 8.55664 30.8442 8.75928 30.8345 8.98877C30.8247 9.21826 30.7417 9.41602 30.5854 9.58203L16.5229 24.582C16.3472 24.7773 16.1177 24.875 15.8345 24.875C15.5513 24.875 15.3218 24.7773 15.146 24.582L1.0835 9.58203C0.927246 9.41602 0.844238 9.21826 0.834473 8.98877C0.824707 8.75928 0.888184 8.55664 1.0249 8.38086L6.6499 0.880859C6.82568 0.626953 7.07471 0.5 7.39697 0.5H24.272C24.5942 0.5 24.8433 0.626953 25.019 0.880859Z" fill="#333333"/>
</svg>
