<svg width="16" height="12" viewBox="0 0 16 12" fill="none" xmlns="http://www.w3.org/2000/svg">
<path d="M1.29425 0.794854L1.29485 0.794252C1.49531 0.593455 1.72131 0.5 2 0.5H14C14.2787 0.5 14.5051 0.593483 14.7062 0.794553L15.0597 0.441L14.7062 0.794554C14.7716 0.859981 14.8256 0.928147 14.8687 1H14H2H1.13161C1.17473 0.928276 1.22879 0.860207 1.29425 0.794854ZM14.265 1.924L14.9995 1.46494C14.9998 1.47653 15 1.48822 15 1.5V10.5C15 10.7788 14.9067 11.0053 14.7062 11.2062C14.5053 11.4067 14.2788 11.5 14 11.5H2C1.72104 11.5 1.49494 11.4066 1.29455 11.2062L0.941 11.5597L1.29455 11.2062C1.09348 11.0051 1 10.7787 1 10.5V1.5C1 1.48822 1.00017 1.47653 1.0005 1.46494L1.5 1.77712V2.08125V2.09025V2.09756V2.1V3V3.1875V10.5V11H2H14H14.5V10.5V3V2.09756L13.7349 2.57608L8.13346 6.07931C8.11107 6.09239 8.0892 6.10136 8.06701 6.10731L8.06701 6.10729L8.06286 6.10844C8.03203 6.11699 8.01164 6.11875 8 6.11875C7.98836 6.11875 7.96797 6.11699 7.93714 6.10844L7.93714 6.10842L7.93299 6.10731C7.9108 6.10136 7.88893 6.09239 7.86654 6.07931L2.5 2.72297V2.40212L7.735 5.674L8 5.83962L8.265 5.674L14.265 1.924Z" fill="white" stroke="white"/>
</svg>
