<svg width="41" height="40" viewBox="0 0 41 40" fill="none" xmlns="http://www.w3.org/2000/svg">
<path d="M13.228 37.1997L13.2285 37.1999C15.4877 38.1754 17.907 38.6667 20.5 38.6667C23.093 38.6667 25.5123 38.1754 27.7715 37.1999L27.772 37.1997C30.057 36.2143 32.0313 34.8831 33.7072 33.2072C35.3831 31.5313 36.7143 29.557 37.6997 27.272L37.6999 27.2715C38.6754 25.0123 39.1667 22.593 39.1667 20C39.1667 17.407 38.6754 14.9877 37.6999 12.7285L37.6997 12.728C36.7143 10.443 35.3831 8.46871 33.7072 6.79281C32.0312 5.11678 30.0567 3.7848 27.7715 2.7981C25.5124 1.82399 23.093 1.33333 20.5 1.33333C17.907 1.33333 15.4876 1.82399 13.2285 2.7981L13.228 37.1997ZM13.228 37.1997C10.943 36.2143 8.96871 34.8831 7.29281 33.2072C5.61691 31.5313 4.28569 29.557 3.30034 27.272L3.3001 27.2715M13.228 37.1997L3.3001 27.2715M3.3001 27.2715C2.32465 25.0123 1.83333 22.593 1.83333 20C1.83333 17.407 2.32465 14.9877 3.3001 12.7285L3.30034 12.728M3.3001 27.2715L3.30034 12.728M3.30034 12.728C4.28569 10.443 5.61691 8.46871 7.29281 6.79281M3.30034 12.728L7.29281 6.79281M7.29281 6.79281C8.9687 5.11692 10.943 3.78502 13.228 2.79834L7.29281 6.79281ZM20.0205 12.4828L20.0172 12.4796C19.8966 12.3594 19.8333 12.2301 19.8333 12C19.8333 11.7698 19.8967 11.6389 20.0188 11.5168C20.1386 11.397 20.2684 11.3333 20.5 11.3333C20.7306 11.3333 20.8619 11.3966 20.9832 11.5169C21.1035 11.6382 21.1667 11.7694 21.1667 12C21.1667 12.2316 21.103 12.3614 20.9832 12.4812C20.8611 12.6033 20.7302 12.6667 20.5 12.6667C20.2699 12.6667 20.1406 12.6034 20.0205 12.4828ZM21.1667 19.3333V28.6667H19.8333V19.3333H21.1667ZM20.5 37.3333C25.3128 37.3333 29.4375 35.6481 32.7928 32.2928C36.1481 28.9375 37.8333 24.8128 37.8333 20C37.8333 15.1872 36.1481 11.0625 32.7928 7.70719C29.4375 4.35191 25.3128 2.66667 20.5 2.66667C15.6872 2.66667 11.5625 4.35191 8.20719 7.70719C4.85191 11.0625 3.16667 15.1872 3.16667 20C3.16667 24.8128 4.85191 28.9375 8.20719 32.2928C11.5625 35.6481 15.6872 37.3333 20.5 37.3333Z" fill="white" stroke="white" stroke-width="2.66667"/>
</svg>
