<svg width="27" height="30" viewBox="0 0 27 30" fill="none" xmlns="http://www.w3.org/2000/svg">
<path d="M15.1665 1.68168C15.1665 1.23965 14.9909 0.81573 14.6783 0.50317C14.3657 0.190609 13.9418 0.0150146 13.4998 0.0150146C13.0578 0.0150146 12.6338 0.190609 12.3213 0.50317C12.0087 0.81573 11.8331 1.23965 11.8331 1.68168L11.8281 15.02C11.8281 15.462 12.0037 15.886 12.3163 16.1985C12.6288 16.5111 13.0528 16.6867 13.4948 16.6867C13.9368 16.6867 14.3607 16.5111 14.6733 16.1985C14.9859 15.886 15.1615 15.462 15.1615 15.02L15.1665 1.68335V1.68168Z" fill="white"/>
<path d="M0.166504 16.6533C0.166504 12.97 1.65817 9.63664 4.0715 7.22498L6.42817 9.58164C5.02958 10.9801 4.07711 12.762 3.6912 14.7018C3.30529 16.6416 3.50329 18.6523 4.26015 20.4796C5.017 22.3069 6.29873 23.8688 7.94323 24.9676C9.58774 26.0664 11.5212 26.6529 13.499 26.6529C15.4768 26.6529 17.4103 26.0664 19.0548 24.9676C20.6993 23.8688 21.981 22.3069 22.7379 20.4796C23.4947 18.6523 23.6927 16.6416 23.3068 14.7018C22.9209 12.762 21.9684 10.9801 20.5698 9.58164L22.9282 7.22498C24.4786 8.77545 25.6227 10.6843 26.2591 12.7826C26.8956 14.8808 27.0047 17.1037 26.5769 19.2542C26.1492 21.4047 25.1976 23.4165 23.8066 25.1114C22.4156 26.8064 20.6281 28.1321 18.6023 28.9712C16.5766 29.8103 14.3752 30.1369 12.1931 29.922C10.011 29.7071 7.91561 28.9574 6.09247 27.7392C4.26932 26.5211 2.77473 24.8722 1.74107 22.9384C0.707406 21.0047 0.166584 18.846 0.166504 16.6533Z" fill="white"/>
</svg>
