<svg width="14" height="18" viewBox="0 0 14 18" fill="none" xmlns="http://www.w3.org/2000/svg">
<path d="M7.0001 13.3775C6.57386 13.3775 6.16508 13.2098 5.86368 12.9113C5.56229 12.6128 5.39296 12.2079 5.39296 11.7857C5.39296 10.9022 6.10814 10.1938 7.0001 10.1938C7.42635 10.1938 7.83513 10.3616 8.13653 10.6601C8.43792 10.9586 8.60725 11.3635 8.60725 11.7857C8.60725 12.2079 8.43792 12.6128 8.13653 12.9113C7.83513 13.2098 7.42635 13.3775 7.0001 13.3775ZM11.8215 15.7653V7.80609H2.17868V15.7653H11.8215ZM11.8215 6.21425C12.2478 6.21425 12.6566 6.38196 12.958 6.68049C13.2594 6.97902 13.4287 7.38391 13.4287 7.80609V15.7653C13.4287 16.1875 13.2594 16.5923 12.958 16.8909C12.6566 17.1894 12.2478 17.3571 11.8215 17.3571H2.17868C1.75244 17.3571 1.34365 17.1894 1.04225 16.8909C0.740857 16.5923 0.571533 16.1875 0.571533 15.7653V7.80609C0.571533 6.92262 1.28671 6.21425 2.17868 6.21425H2.98225V4.62241C2.98225 3.56696 3.40556 2.55474 4.15905 1.80842C4.91254 1.0621 5.9345 0.642822 7.0001 0.642822C7.52774 0.642822 8.0502 0.745757 8.53767 0.945751C9.02514 1.14574 9.46807 1.43888 9.84116 1.80842C10.2143 2.17796 10.5102 2.61666 10.7121 3.09949C10.914 3.58232 11.018 4.09981 11.018 4.62241V6.21425H11.8215ZM7.0001 2.23466C6.36074 2.23466 5.74757 2.48623 5.29547 2.93402C4.84338 3.38181 4.58939 3.98914 4.58939 4.62241V6.21425H9.41082V4.62241C9.41082 3.98914 9.15683 3.38181 8.70474 2.93402C8.25264 2.48623 7.63947 2.23466 7.0001 2.23466Z" fill="black"/>
</svg>
