<svg width="16" height="19" viewBox="0 0 16 19" fill="none" xmlns="http://www.w3.org/2000/svg">
<path d="M7.99992 9.00002C8.45825 9.00002 8.85075 8.83669 9.17742 8.51002C9.50353 8.18391 9.66659 7.79169 9.66659 7.33335C9.66659 6.87502 9.50353 6.48252 9.17742 6.15585C8.85075 5.82974 8.45825 5.66669 7.99992 5.66669C7.54159 5.66669 7.14936 5.82974 6.82325 6.15585C6.49659 6.48252 6.33325 6.87502 6.33325 7.33335C6.33325 7.79169 6.49659 8.18391 6.82325 8.51002C7.14936 8.83669 7.54159 9.00002 7.99992 9.00002ZM7.99992 17.3334C5.76381 15.4306 4.09381 13.6631 2.98992 12.0309C1.88547 10.3992 1.33325 8.88891 1.33325 7.50002C1.33325 5.41669 2.00353 3.75696 3.34409 2.52085C4.68409 1.28474 6.23603 0.666687 7.99992 0.666687C9.76381 0.666687 11.3158 1.28474 12.6558 2.52085C13.9963 3.75696 14.6666 5.41669 14.6666 7.50002C14.6666 8.88891 14.1146 10.3992 13.0108 12.0309C11.9063 13.6631 10.236 15.4306 7.99992 17.3334Z" stroke="#333333" stroke-width="1.2"/>
</svg>
