<svg width="16" height="16" viewBox="0 0 16 16" fill="none" xmlns="http://www.w3.org/2000/svg">
<path d="M15.0667 16C13.1556 16 11.2927 15.5739 9.47822 14.7218C7.6637 13.8696 6.0563 12.7437 4.656 11.344C3.2557 9.9443 2.12978 8.33689 1.27822 6.52178C0.426667 4.70667 0.000592593 2.84385 0 0.933334C0 0.666667 0.0888888 0.444444 0.266667 0.266667C0.444444 0.0888888 0.666667 0 0.933334 0H4.53333C4.74074 0 4.92593 0.0666666 5.08889 0.2C5.25185 0.333333 5.34815 0.503704 5.37778 0.711111L5.95556 3.82222C5.98519 4.02963 5.98133 4.21867 5.944 4.38933C5.90667 4.56 5.82163 4.7117 5.68889 4.84444L3.53333 7.02222C4.15556 8.08889 4.93719 9.08889 5.87822 10.0222C6.81926 10.9556 7.85244 11.763 8.97778 12.4444L11.0667 10.3556C11.2 10.2222 11.3742 10.1221 11.5893 10.0551C11.8044 9.98815 12.0154 9.96978 12.2222 10L15.2889 10.6222C15.4963 10.6667 15.6667 10.7668 15.8 10.9227C15.9333 11.0785 16 11.2599 16 11.4667V15.0667C16 15.3333 15.9111 15.5556 15.7333 15.7333C15.5556 15.9111 15.3333 16 15.0667 16ZM2.68889 5.33333L4.15556 3.86667L3.77778 1.77778H1.8C1.87407 2.38519 1.97778 2.98519 2.11111 3.57778C2.24444 4.17037 2.43704 4.75556 2.68889 5.33333ZM10.6444 13.2889C11.2222 13.5407 11.8113 13.7407 12.4116 13.8889C13.0119 14.037 13.6154 14.1333 14.2222 14.1778V12.2222L12.1333 11.8L10.6444 13.2889Z" fill="black"/>
</svg>
