<svg width="18" height="18" viewBox="0 0 18 18" fill="none" xmlns="http://www.w3.org/2000/svg">
<path d="M4.38462 9.00036V5.9659C4.39363 5.36942 4.52025 4.78059 4.75724 4.23314C4.99422 3.68568 5.3369 3.19037 5.76565 2.77558C6.1944 2.36078 6.70079 2.03466 7.25579 1.8159C7.8108 1.59714 8.40353 1.49004 9 1.50073C9.59647 1.49004 10.1892 1.59714 10.7442 1.8159C11.2992 2.03466 11.8056 2.36078 12.2343 2.77558C12.6631 3.19037 13.0058 3.68568 13.2428 4.23314C13.4797 4.78059 13.6064 5.36942 13.6154 5.9659V9.00036M11.3077 15.0578C11.9197 15.0578 12.5067 14.8146 12.9395 14.3819C13.3723 13.9491 13.6154 13.3622 13.6154 12.7502V10.1542M11.3077 15.0578C11.3077 15.4403 11.1557 15.8071 10.8853 16.0776C10.6148 16.3481 10.2479 16.5 9.86538 16.5H8.13462C7.75209 16.5 7.38523 16.3481 7.11475 16.0776C6.84426 15.8071 6.69231 15.4403 6.69231 15.0578C6.69231 14.6753 6.84426 14.3084 7.11475 14.0379C7.38523 13.7675 7.75209 13.6155 8.13462 13.6155H9.86538C10.2479 13.6155 10.6148 13.7675 10.8853 14.0379C11.1557 14.3084 11.3077 14.6753 11.3077 15.0578ZM2.65385 7.26968H3.80769C3.9607 7.26968 4.10744 7.33046 4.21564 7.43865C4.32383 7.54684 4.38462 7.69357 4.38462 7.84657V11.3079C4.38462 11.4609 4.32383 11.6077 4.21564 11.7159C4.10744 11.8241 3.9607 11.8848 3.80769 11.8848H2.65385C2.34783 11.8848 2.05434 11.7633 1.83795 11.5469C1.62157 11.3305 1.5 11.0371 1.5 10.731V8.42347C1.5 8.11746 1.62157 7.82399 1.83795 7.60762C2.05434 7.39124 2.34783 7.26968 2.65385 7.26968ZM15.3462 11.8848H14.1923C14.0393 11.8848 13.8926 11.8241 13.7844 11.7159C13.6762 11.6077 13.6154 11.4609 13.6154 11.3079V7.84657C13.6154 7.69357 13.6762 7.54684 13.7844 7.43865C13.8926 7.33046 14.0393 7.26968 14.1923 7.26968H15.3462C15.6522 7.26968 15.9457 7.39124 16.162 7.60762C16.3784 7.82399 16.5 8.11746 16.5 8.42347V10.731C16.5 11.0371 16.3784 11.3305 16.162 11.5469C15.9457 11.7633 15.6522 11.8848 15.3462 11.8848Z" stroke="black" stroke-width="1.6" stroke-linecap="round" stroke-linejoin="round"/>
</svg>
