<svg width="20" height="22" viewBox="0 0 20 22" fill="none" xmlns="http://www.w3.org/2000/svg">
    <path
        d="M1 9C1 5.22876 1 3.34315 2.17157 2.17157C3.34315 1 5.22876 1 9 1H11C14.7712 1 16.6569 1 17.8284 2.17157C19 3.34315 19 5.22876 19 9V13C19 16.7712 19 18.6569 17.8284 19.8284C16.6569 21 14.7712 21 11 21H9C5.22876 21 3.34315 21 2.17157 19.8284C1 18.6569 1 16.7712 1 13V9Z"
        stroke="#323232" stroke-width="2" />
    <path d="M6 11H14" stroke="#323232" stroke-width="2" stroke-linecap="round" />
    <path d="M6 7H14" stroke="#323232" stroke-width="2" stroke-linecap="round" />
    <path d="M6 15H11" stroke="#323232" stroke-width="2" stroke-linecap="round" />
</svg>
    